<svg width="36" height="36" viewBox="0 0 36 36" fill="none" xmlns="http://www.w3.org/2000/svg">
<circle cx="18" cy="18" r="18" fill="#566B51"/>
<circle cx="18.1481" cy="17.8549" r="15.9663" fill="#566B51" stroke="white" stroke-width="1.45455"/>
<path d="M17.8674 23.8958L17.8638 23.8937L17.8501 23.8865C17.5663 23.7328 17.2876 23.57 17.0144 23.3983C16.3631 22.9905 15.7426 22.5359 15.1576 22.0383C13.8343 20.9023 12.3636 19.1979 12.3636 17.1564C12.3637 16.4903 12.5712 15.8406 12.9576 15.2968C13.344 14.753 13.8903 14.3417 14.5213 14.1197C15.1522 13.8977 15.8368 13.8759 16.4807 14.0572C17.1247 14.2385 17.6963 14.614 18.1169 15.1321C18.5375 14.614 19.1092 14.2385 19.7531 14.0572C20.397 13.8759 21.0816 13.8977 21.7126 14.1197C22.3435 14.3417 22.8898 14.753 23.2762 15.2968C23.6626 15.8406 23.8701 16.4903 23.8702 17.1564C23.8702 19.1979 22.4002 20.9023 21.0763 22.0383C20.2451 22.7451 19.3428 23.3645 18.3837 23.8865L18.3701 23.8937L18.3665 23.8958H18.365C18.2886 23.9361 18.2035 23.9573 18.117 23.9574C18.0305 23.9575 17.9453 23.9366 17.8688 23.8966L17.8674 23.8958Z" fill="white"/>
</svg>
