<svg width="480" height="51" viewBox="0 0 480 51" fill="none" xmlns="http://www.w3.org/2000/svg">
<path d="M37.912 46V44.784C38.6373 44.208 39.3307 43.6267 39.992 43.04C40.6533 42.4533 41.24 41.8773 41.752 41.312C42.2747 40.736 42.6853 40.176 42.984 39.632C43.2827 39.0773 43.432 38.544 43.432 38.032C43.432 37.6907 43.3733 37.3707 43.256 37.072C43.1387 36.7627 42.9467 36.5173 42.68 36.336C42.4133 36.144 42.056 36.048 41.608 36.048C40.936 36.048 40.4293 36.2613 40.088 36.688C39.7573 37.1147 39.5973 37.6267 39.608 38.224H37.96C37.9707 37.4347 38.136 36.7733 38.456 36.24C38.7867 35.7067 39.224 35.3013 39.768 35.024C40.3227 34.7467 40.9467 34.608 41.64 34.608C42.696 34.608 43.5387 34.9067 44.168 35.504C44.808 36.0907 45.128 36.912 45.128 37.968C45.128 38.5973 44.9733 39.2213 44.664 39.84C44.3653 40.4587 43.9707 41.056 43.48 41.632C43 42.1973 42.4827 42.7307 41.928 43.232C41.3733 43.7333 40.8453 44.1867 40.344 44.592H45.464V46H37.912ZM51.1963 46.192C50.4069 46.192 49.7243 46.0533 49.1483 45.776C48.5723 45.488 48.1136 45.0987 47.7723 44.608C47.4416 44.1067 47.2389 43.5413 47.1643 42.912H48.8283C48.9349 43.4453 49.2016 43.888 49.6283 44.24C50.0549 44.5813 50.5829 44.752 51.2123 44.752C51.6816 44.752 52.0869 44.64 52.4283 44.416C52.7696 44.1813 53.0363 43.872 53.2283 43.488C53.4203 43.104 53.5163 42.672 53.5163 42.192C53.5163 41.4347 53.3029 40.832 52.8763 40.384C52.4496 39.9253 51.9109 39.696 51.2603 39.696C50.7056 39.696 50.2309 39.8293 49.8363 40.096C49.4416 40.352 49.1536 40.6773 48.9723 41.072H47.3563L48.3163 34.8H54.3643V36.288H49.5963L49.0203 39.28C49.2656 39.0027 49.6016 38.7733 50.0283 38.592C50.4656 38.4 50.9563 38.304 51.5003 38.304C52.2576 38.304 52.9083 38.48 53.4523 38.832C53.9963 39.1733 54.4123 39.6373 54.7003 40.224C54.9989 40.8107 55.1483 41.4613 55.1483 42.176C55.1483 42.9227 54.9883 43.6 54.6683 44.208C54.3483 44.816 53.8896 45.3013 53.2923 45.664C52.7056 46.016 52.0069 46.192 51.1963 46.192Z" fill="black"/>
<path d="M137.04 46.192C136.251 46.192 135.568 46.0533 134.992 45.776C134.416 45.488 133.957 45.0987 133.616 44.608C133.285 44.1067 133.083 43.5413 133.008 42.912H134.672C134.779 43.4453 135.045 43.888 135.472 44.24C135.899 44.5813 136.427 44.752 137.056 44.752C137.525 44.752 137.931 44.64 138.272 44.416C138.613 44.1813 138.88 43.872 139.072 43.488C139.264 43.104 139.36 42.672 139.36 42.192C139.36 41.4347 139.147 40.832 138.72 40.384C138.293 39.9253 137.755 39.696 137.104 39.696C136.549 39.696 136.075 39.8293 135.68 40.096C135.285 40.352 134.997 40.6773 134.816 41.072H133.2L134.16 34.8H140.208V36.288H135.44L134.864 39.28C135.109 39.0027 135.445 38.7733 135.872 38.592C136.309 38.4 136.8 38.304 137.344 38.304C138.101 38.304 138.752 38.48 139.296 38.832C139.84 39.1733 140.256 39.6373 140.544 40.224C140.843 40.8107 140.992 41.4613 140.992 42.176C140.992 42.9227 140.832 43.6 140.512 44.208C140.192 44.816 139.733 45.3013 139.136 45.664C138.549 46.016 137.851 46.192 137.04 46.192ZM147.475 46.192C146.462 46.192 145.587 45.952 144.851 45.472C144.126 44.9813 143.566 44.304 143.171 43.44C142.787 42.5653 142.595 41.552 142.595 40.4C142.595 39.248 142.787 38.24 143.171 37.376C143.566 36.5013 144.126 35.824 144.851 35.344C145.587 34.8533 146.462 34.608 147.475 34.608C148.489 34.608 149.358 34.8533 150.083 35.344C150.809 35.824 151.363 36.5013 151.747 37.376C152.142 38.24 152.339 39.248 152.339 40.4C152.339 41.552 152.142 42.5653 151.747 43.44C151.363 44.304 150.809 44.9813 150.083 45.472C149.358 45.952 148.489 46.192 147.475 46.192ZM147.475 44.672C148.083 44.672 148.622 44.5013 149.091 44.16C149.571 43.8187 149.945 43.328 150.211 42.688C150.478 42.048 150.611 41.2853 150.611 40.4C150.611 39.5147 150.478 38.752 150.211 38.112C149.945 37.472 149.571 36.9813 149.091 36.64C148.622 36.2987 148.083 36.128 147.475 36.128C146.857 36.128 146.313 36.2987 145.843 36.64C145.374 36.9813 145.006 37.472 144.739 38.112C144.473 38.752 144.339 39.5147 144.339 40.4C144.339 41.2853 144.473 42.048 144.739 42.688C145.006 43.328 145.374 43.8187 145.843 44.16C146.313 44.5013 146.857 44.672 147.475 44.672Z" fill="black"/>
<path d="M232.92 46L237.256 36.256H231.432V34.8H239V36.032L234.696 46H232.92ZM244.165 46.192C243.376 46.192 242.693 46.0533 242.117 45.776C241.541 45.488 241.082 45.0987 240.741 44.608C240.41 44.1067 240.208 43.5413 240.133 42.912H241.797C241.904 43.4453 242.17 43.888 242.597 44.24C243.024 44.5813 243.552 44.752 244.181 44.752C244.65 44.752 245.056 44.64 245.397 44.416C245.738 44.1813 246.005 43.872 246.197 43.488C246.389 43.104 246.485 42.672 246.485 42.192C246.485 41.4347 246.272 40.832 245.845 40.384C245.418 39.9253 244.88 39.696 244.229 39.696C243.674 39.696 243.2 39.8293 242.805 40.096C242.41 40.352 242.122 40.6773 241.941 41.072H240.325L241.285 34.8H247.333V36.288H242.565L241.989 39.28C242.234 39.0027 242.57 38.7733 242.997 38.592C243.434 38.4 243.925 38.304 244.469 38.304C245.226 38.304 245.877 38.48 246.421 38.832C246.965 39.1733 247.381 39.6373 247.669 40.224C247.968 40.8107 248.117 41.4613 248.117 42.176C248.117 42.9227 247.957 43.6 247.637 44.208C247.317 44.816 246.858 45.3013 246.261 45.664C245.674 46.016 244.976 46.192 244.165 46.192Z" fill="black"/>
<path d="M325.288 46V36.72L323.48 37.136V35.888L325.96 34.8H327.048V46H325.288ZM333.804 46.192C332.79 46.192 331.916 45.952 331.18 45.472C330.454 44.9813 329.894 44.304 329.5 43.44C329.116 42.5653 328.924 41.552 328.924 40.4C328.924 39.248 329.116 38.24 329.5 37.376C329.894 36.5013 330.454 35.824 331.18 35.344C331.916 34.8533 332.79 34.608 333.804 34.608C334.817 34.608 335.686 34.8533 336.411 35.344C337.137 35.824 337.692 36.5013 338.076 37.376C338.47 38.24 338.668 39.248 338.668 40.4C338.668 41.552 338.47 42.5653 338.076 43.44C337.692 44.304 337.137 44.9813 336.411 45.472C335.686 45.952 334.817 46.192 333.804 46.192ZM333.804 44.672C334.412 44.672 334.95 44.5013 335.42 44.16C335.9 43.8187 336.273 43.328 336.54 42.688C336.806 42.048 336.94 41.2853 336.94 40.4C336.94 39.5147 336.806 38.752 336.54 38.112C336.273 37.472 335.9 36.9813 335.42 36.64C334.95 36.2987 334.412 36.128 333.804 36.128C333.185 36.128 332.641 36.2987 332.172 36.64C331.702 36.9813 331.334 37.472 331.068 38.112C330.801 38.752 330.668 39.5147 330.668 40.4C330.668 41.2853 330.801 42.048 331.068 42.688C331.334 43.328 331.702 43.8187 332.172 44.16C332.641 44.5013 333.185 44.672 333.804 44.672ZM345.038 46.192C344.025 46.192 343.15 45.952 342.414 45.472C341.689 44.9813 341.129 44.304 340.734 43.44C340.35 42.5653 340.158 41.552 340.158 40.4C340.158 39.248 340.35 38.24 340.734 37.376C341.129 36.5013 341.689 35.824 342.414 35.344C343.15 34.8533 344.025 34.608 345.038 34.608C346.051 34.608 346.921 34.8533 347.646 35.344C348.371 35.824 348.926 36.5013 349.31 37.376C349.705 38.24 349.902 39.248 349.902 40.4C349.902 41.552 349.705 42.5653 349.31 43.44C348.926 44.304 348.371 44.9813 347.646 45.472C346.921 45.952 346.051 46.192 345.038 46.192ZM345.038 44.672C345.646 44.672 346.185 44.5013 346.654 44.16C347.134 43.8187 347.507 43.328 347.774 42.688C348.041 42.048 348.174 41.2853 348.174 40.4C348.174 39.5147 348.041 38.752 347.774 38.112C347.507 37.472 347.134 36.9813 346.654 36.64C346.185 36.2987 345.646 36.128 345.038 36.128C344.419 36.128 343.875 36.2987 343.406 36.64C342.937 36.9813 342.569 37.472 342.302 38.112C342.035 38.752 341.902 39.5147 341.902 40.4C341.902 41.2853 342.035 42.048 342.302 42.688C342.569 43.328 342.937 43.8187 343.406 44.16C343.875 44.5013 344.419 44.672 345.038 44.672Z" fill="black"/>
<path d="M421.04 46.192C420.251 46.192 419.568 46.0533 418.992 45.776C418.416 45.488 417.957 45.0987 417.616 44.608C417.285 44.1067 417.083 43.5413 417.008 42.912H418.672C418.779 43.4453 419.045 43.888 419.472 44.24C419.899 44.5813 420.427 44.752 421.056 44.752C421.525 44.752 421.931 44.64 422.272 44.416C422.613 44.1813 422.88 43.872 423.072 43.488C423.264 43.104 423.36 42.672 423.36 42.192C423.36 41.4347 423.147 40.832 422.72 40.384C422.293 39.9253 421.755 39.696 421.104 39.696C420.549 39.696 420.075 39.8293 419.68 40.096C419.285 40.352 418.997 40.6773 418.816 41.072H417.2L418.16 34.8H424.208V36.288H419.44L418.864 39.28C419.109 39.0027 419.445 38.7733 419.872 38.592C420.309 38.4 420.8 38.304 421.344 38.304C422.101 38.304 422.752 38.48 423.296 38.832C423.84 39.1733 424.256 39.6373 424.544 40.224C424.843 40.8107 424.992 41.4613 424.992 42.176C424.992 42.9227 424.832 43.6 424.512 44.208C424.192 44.816 423.733 45.3013 423.136 45.664C422.549 46.016 421.851 46.192 421.04 46.192ZM431.475 46.192C430.462 46.192 429.587 45.952 428.851 45.472C428.126 44.9813 427.566 44.304 427.171 43.44C426.787 42.5653 426.595 41.552 426.595 40.4C426.595 39.248 426.787 38.24 427.171 37.376C427.566 36.5013 428.126 35.824 428.851 35.344C429.587 34.8533 430.462 34.608 431.475 34.608C432.489 34.608 433.358 34.8533 434.083 35.344C434.809 35.824 435.363 36.5013 435.747 37.376C436.142 38.24 436.339 39.248 436.339 40.4C436.339 41.552 436.142 42.5653 435.747 43.44C435.363 44.304 434.809 44.9813 434.083 45.472C433.358 45.952 432.489 46.192 431.475 46.192ZM431.475 44.672C432.083 44.672 432.622 44.5013 433.091 44.16C433.571 43.8187 433.945 43.328 434.211 42.688C434.478 42.048 434.611 41.2853 434.611 40.4C434.611 39.5147 434.478 38.752 434.211 38.112C433.945 37.472 433.571 36.9813 433.091 36.64C432.622 36.2987 432.083 36.128 431.475 36.128C430.857 36.128 430.313 36.2987 429.843 36.64C429.374 36.9813 429.006 37.472 428.739 38.112C428.473 38.752 428.339 39.5147 428.339 40.4C428.339 41.2853 428.473 42.048 428.739 42.688C429.006 43.328 429.374 43.8187 429.843 44.16C430.313 44.5013 430.857 44.672 431.475 44.672ZM442.71 46.192C441.696 46.192 440.822 45.952 440.086 45.472C439.36 44.9813 438.8 44.304 438.406 43.44C438.022 42.5653 437.83 41.552 437.83 40.4C437.83 39.248 438.022 38.24 438.406 37.376C438.8 36.5013 439.36 35.824 440.086 35.344C440.822 34.8533 441.696 34.608 442.71 34.608C443.723 34.608 444.592 34.8533 445.318 35.344C446.043 35.824 446.598 36.5013 446.982 37.376C447.376 38.24 447.574 39.248 447.574 40.4C447.574 41.552 447.376 42.5653 446.982 43.44C446.598 44.304 446.043 44.9813 445.318 45.472C444.592 45.952 443.723 46.192 442.71 46.192ZM442.71 44.672C443.318 44.672 443.856 44.5013 444.326 44.16C444.806 43.8187 445.179 43.328 445.446 42.688C445.712 42.048 445.846 41.2853 445.846 40.4C445.846 39.5147 445.712 38.752 445.446 38.112C445.179 37.472 444.806 36.9813 444.326 36.64C443.856 36.2987 443.318 36.128 442.71 36.128C442.091 36.128 441.547 36.2987 441.078 36.64C440.608 36.9813 440.24 37.472 439.974 38.112C439.707 38.752 439.574 39.5147 439.574 40.4C439.574 41.2853 439.707 42.048 439.974 42.688C440.24 43.328 440.608 43.8187 441.078 44.16C441.547 44.5013 442.091 44.672 442.71 44.672Z" fill="black"/>
<rect y="7.95676" width="37.0858" height="8.06212" rx="4.03106" fill="black"/>
<rect x="442.914" y="7.95676" width="37.0858" height="8.06212" rx="4.03106" fill="black"/>
<rect x="57.973" y="7.95676" width="74.1715" height="8.06212" rx="4.03106" fill="black"/>
<rect x="154.208" y="7.95676" width="74.1715" height="8.06212" rx="4.03106" fill="black"/>
<rect x="250.444" y="7.95676" width="74.1715" height="8.06212" rx="4.03106" fill="black"/>
<rect x="346.679" y="7.95676" width="74.1715" height="8.06212" rx="4.03106" fill="black"/>
<circle cx="47.4721" cy="11.7276" r="8.77711" fill="#ED7A77" stroke="black" stroke-width="3.90094"/>
<circle cx="142.906" cy="11.7276" r="8.77711" fill="#ED7A77" stroke="black" stroke-width="3.90094"/>
<circle cx="239.141" cy="11.7276" r="8.77711" stroke="black" stroke-width="3.90094"/>
<circle cx="335.377" cy="11.7276" r="8.77711" stroke="black" stroke-width="3.90094"/>
<circle cx="431.612" cy="11.7276" r="8.77711" stroke="black" stroke-width="3.90094"/>
<circle cx="432" cy="12" r="12" fill="black"/>
<circle cx="432.099" cy="11.9032" r="10.4018" fill="#ED7A77" stroke="white" stroke-width="1.45455"/>
<path d="M431.912 15.9306L431.909 15.9291L431.9 15.9244C431.711 15.8219 431.525 15.7134 431.343 15.5989C430.909 15.327 430.495 15.0239 430.105 14.6922C429.223 13.9349 428.242 12.7986 428.242 11.4376C428.242 10.9936 428.381 10.5604 428.638 10.1979C428.896 9.83532 429.26 9.56116 429.681 9.41316C430.101 9.26516 430.558 9.25059 430.987 9.37146C431.416 9.49233 431.798 9.74269 432.078 10.0881C432.358 9.74269 432.739 9.49233 433.169 9.37146C433.598 9.25059 434.054 9.26516 434.475 9.41316C434.896 9.56116 435.26 9.83532 435.517 10.1979C435.775 10.5604 435.913 10.9936 435.913 11.4376C435.913 12.7986 434.933 13.9349 434.051 14.6922C433.497 15.1634 432.895 15.5763 432.256 15.9244L432.247 15.9291L432.244 15.9306C432.193 15.9574 432.136 15.9715 432.078 15.9716C432.02 15.9717 431.964 15.9578 431.913 15.931L431.912 15.9306Z" fill="white"/>
<circle cx="335" cy="13" r="12" fill="black"/>
<circle cx="335.099" cy="12.9032" r="10.4018" fill="#ED7A77" stroke="white" stroke-width="1.45455"/>
<path d="M334.912 16.9306L334.909 16.9291L334.9 16.9244C334.711 16.8219 334.525 16.7134 334.343 16.5989C333.909 16.327 333.495 16.0239 333.105 15.6922C332.223 14.9349 331.242 13.7986 331.242 12.4376C331.242 11.9936 331.381 11.5604 331.638 11.1979C331.896 10.8353 332.26 10.5612 332.681 10.4132C333.101 10.2652 333.558 10.2506 333.987 10.3715C334.416 10.4923 334.798 10.7427 335.078 11.0881C335.358 10.7427 335.739 10.4923 336.169 10.3715C336.598 10.2506 337.054 10.2652 337.475 10.4132C337.896 10.5612 338.26 10.8353 338.517 11.1979C338.775 11.5604 338.913 11.9936 338.913 12.4376C338.913 13.7986 337.933 14.9349 337.051 15.6922C336.497 16.1634 335.895 16.5763 335.256 16.9244L335.247 16.9291L335.244 16.9306H335.243C335.192 16.9574 335.136 16.9715 335.078 16.9716C335.02 16.9717 334.964 16.9578 334.913 16.931L334.912 16.9306Z" fill="white"/>
<circle cx="240" cy="13" r="12" fill="black"/>
<circle cx="240.099" cy="12.9032" r="10.4018" fill="#ED7A77" stroke="white" stroke-width="1.45455"/>
<path d="M239.912 16.9306L239.909 16.9291L239.9 16.9244C239.711 16.8219 239.525 16.7134 239.343 16.5989C238.909 16.327 238.495 16.0239 238.105 15.6922C237.223 14.9349 236.242 13.7986 236.242 12.4376C236.242 11.9936 236.381 11.5604 236.638 11.1979C236.896 10.8353 237.26 10.5612 237.681 10.4132C238.101 10.2652 238.558 10.2506 238.987 10.3715C239.416 10.4923 239.798 10.7427 240.078 11.0881C240.358 10.7427 240.739 10.4923 241.169 10.3715C241.598 10.2506 242.054 10.2652 242.475 10.4132C242.896 10.5612 243.26 10.8353 243.517 11.1979C243.775 11.5604 243.913 11.9936 243.913 12.4376C243.913 13.7986 242.933 14.9349 242.051 15.6922C241.497 16.1634 240.895 16.5763 240.256 16.9244L240.247 16.9291L240.244 16.9306H240.243C240.192 16.9574 240.136 16.9715 240.078 16.9716C240.02 16.9717 239.964 16.9578 239.913 16.931L239.912 16.9306Z" fill="white"/>
<circle cx="143" cy="12" r="12" fill="black"/>
<circle cx="143.099" cy="11.9032" r="10.4018" fill="#ED7A77" stroke="white" stroke-width="1.45455"/>
<path d="M142.912 15.9306L142.909 15.9291L142.9 15.9244C142.711 15.8219 142.525 15.7134 142.343 15.5989C141.909 15.327 141.495 15.0239 141.105 14.6922C140.223 13.9349 139.242 12.7986 139.242 11.4376C139.242 10.9936 139.381 10.5604 139.638 10.1979C139.896 9.83532 140.26 9.56116 140.681 9.41316C141.101 9.26516 141.558 9.25059 141.987 9.37146C142.416 9.49233 142.798 9.74269 143.078 10.0881C143.358 9.74269 143.739 9.49233 144.169 9.37146C144.598 9.25059 145.054 9.26516 145.475 9.41316C145.896 9.56116 146.26 9.83532 146.517 10.1979C146.775 10.5604 146.913 10.9936 146.913 11.4376C146.913 12.7986 145.933 13.9349 145.051 14.6922C144.497 15.1634 143.895 15.5763 143.256 15.9244L143.247 15.9291L143.244 15.9306H143.243C143.192 15.9574 143.136 15.9715 143.078 15.9716C143.02 15.9717 142.964 15.9578 142.913 15.931L142.912 15.9306Z" fill="white"/>
<circle cx="47" cy="12" r="12" fill="black"/>
<circle cx="47.0988" cy="11.9032" r="10.4018" fill="#ED7A77" stroke="white" stroke-width="1.45455"/>
<path d="M46.9116 15.9306L46.9092 15.9291L46.9001 15.9244C46.7109 15.8219 46.5251 15.7134 46.343 15.5989C45.9088 15.327 45.495 15.0239 45.1051 14.6922C44.2229 13.9349 43.2424 12.7986 43.2424 11.4376C43.2425 10.9936 43.3808 10.5604 43.6384 10.1979C43.896 9.83532 44.2602 9.56116 44.6808 9.41316C45.1015 9.26516 45.5579 9.25059 45.9871 9.37146C46.4164 9.49233 46.7975 9.74269 47.0779 10.0881C47.3584 9.74269 47.7394 9.49233 48.1687 9.37146C48.598 9.25059 49.0544 9.26516 49.475 9.41316C49.8957 9.56116 50.2599 9.83532 50.5175 10.1979C50.7751 10.5604 50.9134 10.9936 50.9135 11.4376C50.9135 12.7986 49.9335 13.9349 49.0508 14.6922C48.4968 15.1634 47.8952 15.5763 47.2558 15.9244L47.2467 15.9291L47.2443 15.9306H47.2434C47.1924 15.9574 47.1357 15.9715 47.078 15.9716C47.0204 15.9717 46.9636 15.9578 46.9125 15.931L46.9116 15.9306Z" fill="white"/>
</svg>
