<svg width="543" height="540" viewBox="0 0 543 540" fill="none" xmlns="http://www.w3.org/2000/svg">
<path d="M227.242 414.23C227.242 414.23 224.468 415.735 223.206 416.426C217.177 420.923 204.934 408.063 199.916 402.182C199.846 402.101 199.754 402.043 199.653 402.017C199.551 401.99 199.445 401.995 199.346 402.032C199.248 402.069 199.162 402.136 199.1 402.223C199.039 402.311 199.004 402.416 199 402.525C199.157 406.595 200.265 410.565 202.229 414.092C208.191 425.661 208.419 452.857 214.159 456.545C214.507 456.774 214.9 456.921 215.31 456.976C215.719 457.031 216.135 456.992 216.528 456.862C217.971 456.421 219.935 453.185 223.561 432.53C224.682 426.556 226.157 420.66 227.978 414.875C228.007 414.773 228.008 414.665 227.978 414.563C227.949 414.461 227.892 414.37 227.814 414.302C227.736 414.233 227.64 414.19 227.539 414.177C227.437 414.164 227.334 414.183 227.242 414.23Z" fill="#000001"/>
<path d="M381.307 275.224C379.796 274.909 378.239 274.926 376.735 275.275C375.23 275.624 373.81 276.296 372.561 277.25C371.313 278.204 370.264 279.42 369.48 280.822C368.695 282.223 368.192 283.781 368.001 285.397C367.993 285.541 368.037 285.683 368.124 285.794C368.212 285.905 368.335 285.977 368.471 285.995C368.606 286.014 368.743 285.977 368.854 285.893C368.965 285.809 369.042 285.683 369.069 285.542C369.368 283.091 370.455 280.823 372.148 279.118C373.84 277.414 376.035 276.376 378.365 276.179C380.694 275.981 383.017 276.636 384.945 278.034C386.872 279.432 388.287 281.488 388.952 283.857C388.998 283.995 389.092 284.109 389.215 284.175C389.338 284.242 389.481 284.256 389.613 284.214C389.746 284.173 389.858 284.079 389.928 283.953C389.997 283.826 390.017 283.676 389.985 283.534C389.417 281.431 388.302 279.537 386.769 278.068C385.235 276.6 383.343 275.614 381.307 275.224Z" fill="#6DAC7F"/>
<path d="M413.65 257.606C411.504 256.867 409.181 256.802 406.996 257.421C404.812 258.039 402.874 259.311 401.447 261.061C400.02 262.812 399.174 264.956 399.024 267.201C398.874 269.445 399.428 271.681 400.61 273.602C401.124 274.435 401.751 275.195 402.472 275.86C402.522 275.907 402.581 275.943 402.646 275.967C402.71 275.991 402.779 276.002 402.848 276C402.917 275.997 402.985 275.982 403.047 275.953C403.11 275.925 403.167 275.885 403.214 275.835C403.261 275.785 403.298 275.727 403.322 275.663C403.346 275.599 403.357 275.531 403.355 275.462C403.353 275.394 403.337 275.327 403.308 275.265C403.28 275.203 403.239 275.147 403.189 275.1C401.53 273.549 400.458 271.482 400.152 269.244C399.846 267.005 400.325 264.731 401.507 262.799C402.69 260.868 404.505 259.396 406.651 258.629C408.797 257.863 411.143 257.848 413.299 258.587C413.43 258.633 413.574 258.626 413.7 258.566C413.826 258.507 413.923 258.401 413.97 258.27C414.016 258.14 414.009 257.997 413.949 257.873C413.889 257.748 413.782 257.652 413.65 257.606Z" fill="#6DAC7F"/>
<path d="M435.851 241.348C431.845 234.833 423.805 233.092 421.51 234.41C418.86 235.928 406.006 244.036 337.234 285.833C337.12 285.912 337.041 286.03 337.012 286.165C336.983 286.299 337.007 286.44 337.078 286.557C337.149 286.675 337.263 286.761 337.395 286.798C337.528 286.836 337.67 286.821 337.792 286.757L343.56 283.258C342.032 286.216 341.565 289.607 342.237 292.868C342.908 296.128 344.677 299.06 347.25 301.176C349.822 303.291 353.042 304.462 356.374 304.493C359.706 304.525 362.948 303.415 365.559 301.348C366.602 304.261 368.546 306.767 371.111 308.501C373.676 310.235 376.728 311.107 379.823 310.99C382.917 310.873 385.894 309.773 388.32 307.85C390.747 305.928 392.497 303.283 393.316 300.299C395.627 301.861 398.338 302.729 401.127 302.8C403.917 302.87 406.668 302.14 409.055 300.696C411.442 299.252 413.365 297.154 414.595 294.652C415.825 292.149 416.311 289.347 415.996 286.577C419.021 287.149 422.15 286.75 424.935 285.437C427.72 284.125 430.018 281.966 431.5 279.269C432.982 276.573 433.573 273.477 433.187 270.425C432.802 267.373 431.46 264.521 429.353 262.277C431.249 261.432 432.942 260.193 434.321 258.642C435.699 257.09 436.73 255.263 437.345 253.283C437.96 251.302 438.145 249.212 437.887 247.154C437.63 245.096 436.936 243.117 435.851 241.348ZM436.195 253.318C435.555 255.197 434.507 256.911 433.127 258.338C431.746 259.765 430.066 260.869 428.208 261.571C426.361 262.26 424.403 262.61 422.431 262.603C422.288 262.603 422.15 262.655 422.045 262.751C421.939 262.847 421.872 262.979 421.859 263.121C421.854 263.192 421.863 263.264 421.887 263.332C421.91 263.4 421.947 263.462 421.995 263.516C422.043 263.569 422.101 263.612 422.166 263.643C422.232 263.673 422.302 263.69 422.374 263.692C424.377 263.713 426.367 263.38 428.254 262.709C429.704 264.148 430.809 265.897 431.483 267.825C432.158 269.752 432.385 271.808 432.149 273.836C431.912 275.864 431.217 277.812 430.117 279.533C429.016 281.254 427.539 282.702 425.796 283.769C424.291 284.717 422.608 285.347 420.851 285.623C419.093 285.898 417.298 285.812 415.575 285.37C413.853 284.903 412.225 284.142 410.762 283.12C410.648 283.053 410.512 283.03 410.382 283.056C410.252 283.082 410.135 283.155 410.055 283.261C409.975 283.367 409.937 283.499 409.948 283.631C409.959 283.763 410.019 283.887 410.115 283.978C411.56 284.987 413.157 285.759 414.845 286.265C415.239 288.892 414.847 291.576 413.719 293.981C412.591 296.386 410.776 298.405 408.504 299.783C406.231 301.161 403.602 301.838 400.945 301.729C398.289 301.619 395.724 300.728 393.573 299.167C393.91 297.278 393.947 295.349 393.682 293.449C393.66 293.308 393.583 293.181 393.468 293.097C393.353 293.013 393.209 292.977 393.068 292.999C392.927 293.021 392.8 293.097 392.716 293.212C392.631 293.327 392.596 293.471 392.617 293.612C393.094 295.996 392.923 298.464 392.123 300.759C391.322 303.055 389.921 305.094 388.065 306.666C386.209 308.238 383.966 309.285 381.568 309.698C379.17 310.111 376.706 309.875 374.43 309.015C372.541 308.299 370.839 307.164 369.451 305.697C368.063 304.229 367.026 302.467 366.418 300.542C367.529 299.389 368.49 298.101 369.279 296.708C369.348 296.583 369.363 296.435 369.323 296.298C369.282 296.161 369.189 296.046 369.063 295.978C368.938 295.91 368.79 295.894 368.653 295.934C368.516 295.975 368.4 296.068 368.332 296.194C367.087 298.692 365.074 300.726 362.588 301.998C360.102 303.27 357.274 303.713 354.517 303.263C352.252 302.927 350.11 302.02 348.293 300.63C346.475 299.239 345.041 297.409 344.125 295.312C343.21 293.216 342.843 290.921 343.059 288.644C343.275 286.367 344.067 284.182 345.36 282.294C345.609 281.928 419.893 236.774 421.604 235.717C426.131 232.941 440.358 241.131 436.195 253.324V253.318Z" fill="#6DAC7F"/>
<path d="M415.752 210.387C414.68 208.62 413.248 207.103 411.552 205.94C409.855 204.777 407.933 203.993 405.914 203.641C403.894 203.289 401.824 203.377 399.84 203.899C397.857 204.421 396.007 205.365 394.412 206.669C393.692 204.628 392.531 202.775 391.014 201.246C389.497 199.717 387.662 198.549 385.643 197.829C383.624 197.108 381.471 196.853 379.342 197.081C377.213 197.309 375.161 198.015 373.335 199.148C370.278 201.06 368.028 204.048 367.016 207.538C364.72 205.99 362.032 205.142 359.274 205.096C356.515 205.05 353.801 205.808 351.456 207.279C349.11 208.75 347.232 210.872 346.044 213.393C344.857 215.914 344.41 218.728 344.758 221.498C341.763 220.875 338.65 221.234 335.87 222.523C333.09 223.812 330.788 225.964 329.299 228.667C327.809 231.37 327.209 234.483 327.586 237.554C327.962 240.626 329.296 243.496 331.393 245.748C328.406 247.135 325.978 249.515 324.512 252.492C323.046 255.469 322.63 258.864 323.334 262.113C324.038 265.363 325.819 268.27 328.381 270.353C330.943 272.437 334.132 273.57 337.418 273.565L331.837 276.997C331.716 277.073 331.63 277.194 331.598 277.334C331.566 277.474 331.59 277.622 331.665 277.744C331.739 277.866 331.859 277.953 331.998 277.986C332.136 278.018 332.281 277.994 332.402 277.918C369.927 254.833 415.846 226.141 416.128 225.66C417.417 223.312 418.061 220.658 417.995 217.972C417.929 215.287 417.155 212.668 415.752 210.387ZM415.187 225.131C415.023 225.417 374.333 250.227 339.73 272.143C339.543 272.267 339.332 272.349 339.111 272.383C335.946 272.803 332.736 272.059 330.067 270.287C327.397 268.514 325.445 265.83 324.564 262.724C323.684 259.617 323.935 256.294 325.27 253.359C326.606 250.424 328.938 248.071 331.843 246.729C333.554 246.074 335.359 245.702 337.187 245.628C337.321 245.618 337.447 245.557 337.539 245.457C337.631 245.356 337.682 245.225 337.682 245.088C337.682 244.952 337.631 244.82 337.539 244.72C337.447 244.62 337.321 244.559 337.187 244.549C335.601 244.616 334.03 244.887 332.512 245.356C331.077 243.917 329.984 242.167 329.315 240.238C328.647 238.309 328.42 236.251 328.653 234.22C328.885 232.189 329.571 230.239 330.657 228.515C331.744 226.792 333.204 225.341 334.926 224.273C337.291 222.842 340.026 222.162 342.778 222.321C345.529 222.48 348.17 223.471 350.359 225.166C350.474 225.249 350.617 225.283 350.756 225.26C350.895 225.237 351.02 225.159 351.102 225.043C351.185 224.926 351.218 224.782 351.196 224.641C351.173 224.5 351.096 224.374 350.981 224.29C349.426 223.191 347.709 222.347 345.894 221.79C345.482 219.163 345.846 216.472 346.941 214.054C348.036 211.636 349.813 209.6 352.047 208.201C354.282 206.802 356.876 206.103 359.502 206.192C362.128 206.281 364.669 207.153 366.807 208.7C366.495 210.434 366.46 212.209 366.705 213.955C366.736 214.089 366.816 214.206 366.93 214.282C367.043 214.358 367.181 214.388 367.315 214.365C367.449 214.342 367.569 214.268 367.651 214.158C367.733 214.049 367.771 213.911 367.757 213.774C367.208 210.416 367.935 206.971 369.792 204.133C371.649 201.294 374.499 199.272 377.768 198.473C381.037 197.674 384.484 198.156 387.416 199.823C390.349 201.49 392.549 204.219 393.576 207.461C392.146 208.842 390.961 210.462 390.074 212.25C389.843 212.768 390.552 213.68 391.278 212.27C392.1 210.663 393.206 209.223 394.542 208.022C395.995 206.685 397.722 205.69 399.598 205.107C401.475 204.523 403.456 204.367 405.399 204.647C407.342 204.928 409.201 205.639 410.841 206.73C412.482 207.821 413.865 209.265 414.89 210.96C416.165 213.087 416.863 215.517 416.915 218.005C416.967 220.493 416.371 222.951 415.187 225.131Z" fill="#6DAC7F"/>
<path d="M358.575 231.126C358.472 231.037 358.341 230.993 358.208 231.001C358.076 231.009 357.951 231.07 357.859 231.171C357.768 231.272 357.716 231.406 357.714 231.545C357.713 231.684 357.761 231.819 357.851 231.922C359.505 233.566 360.569 235.757 360.866 238.126C361.162 240.495 360.673 242.899 359.479 244.935C358.286 246.971 356.461 248.515 354.311 249.309C352.16 250.102 349.815 250.097 347.667 249.294C347.539 249.256 347.402 249.271 347.284 249.335C347.166 249.399 347.076 249.508 347.031 249.639C346.986 249.77 346.99 249.914 347.043 250.043C347.095 250.171 347.192 250.273 347.314 250.329C349.688 251.218 352.281 251.224 354.658 250.347C357.036 249.47 359.053 247.763 360.373 245.512C361.693 243.262 362.234 240.604 361.907 237.985C361.579 235.366 360.403 232.944 358.575 231.126Z" fill="#6DAC7F"/>
<path d="M391.947 222.419C391.626 224.895 390.523 227.178 388.822 228.888C387.12 230.598 384.923 231.632 382.597 231.817C380.27 232.001 377.955 231.326 376.036 229.904C374.118 228.482 372.713 226.398 372.055 224C372.015 223.854 371.922 223.73 371.797 223.656C371.672 223.582 371.525 223.565 371.388 223.607C371.251 223.65 371.135 223.749 371.067 223.883C370.998 224.017 370.982 224.175 371.021 224.321C371.746 226.973 373.299 229.278 375.419 230.851C377.539 232.425 380.099 233.172 382.671 232.967C385.243 232.762 387.672 231.618 389.552 229.727C391.431 227.835 392.649 225.31 393 222.572C392.999 222.434 392.952 222.3 392.867 222.196C392.781 222.091 392.664 222.024 392.535 222.005C392.407 221.987 392.277 222.018 392.169 222.094C392.061 222.171 391.982 222.286 391.947 222.419Z" fill="#6DAC7F"/>
<path d="M470.275 198.35C434.603 137.2 351.288 128.79 306.376 183.253C294.71 200.9 281.588 217.546 267.146 233.016C267.098 233.068 267.06 233.128 267.035 233.194C267.01 233.26 266.998 233.33 267 233.401C267.002 233.471 267.018 233.541 267.047 233.605C267.076 233.669 267.118 233.727 267.169 233.776C267.221 233.824 267.281 233.862 267.347 233.887C267.414 233.912 267.484 233.923 267.555 233.921C267.625 233.919 267.695 233.903 267.759 233.874C267.824 233.845 267.882 233.804 267.931 233.753C282.417 218.267 295.574 201.596 307.263 183.915C307.287 183.881 307.306 183.844 307.32 183.804C351.537 130.388 433.864 138.076 469.339 198.877C504.725 259.536 472.676 338.102 406.073 353.112C383.837 355.893 361.818 360.184 340.168 365.954C340.037 365.997 339.927 366.089 339.862 366.21C339.797 366.332 339.781 366.474 339.818 366.606C339.854 366.739 339.941 366.853 340.06 366.924C340.178 366.994 340.319 367.017 340.454 366.987C361.885 360.972 383.768 356.693 405.89 354.194C405.965 354.209 406.043 354.209 406.119 354.194C473.666 339.132 506.005 259.602 470.275 198.35Z" fill="#6DAC7F"/>
<path d="M353.749 121C335.993 133.25 303.565 152.99 265.452 159.003C262.531 159.468 258.928 158.796 256.709 160.77C249.695 167.006 248.252 188.765 230.934 189.238C228.522 195.283 226.351 201.146 224 206.143C224.825 205.004 227.64 204.434 231.75 204.4C238.867 204.554 245.947 205.461 252.871 207.106C264.39 209.67 273.949 213.308 277.713 216.294C278.964 217.285 279.577 218.211 279.394 219C283.314 210.61 281.782 202.086 279.205 193.215C310.284 187.247 353.343 165.399 374 147.426C372.359 137.142 363.212 126.307 353.749 121Z" fill="#E6E7E8"/>
<path d="M298.935 381.38C298.907 381.315 298.868 381.256 298.817 381.207C298.767 381.157 298.708 381.118 298.643 381.091C298.578 381.065 298.508 381.051 298.437 381.052C298.367 381.052 298.297 381.066 298.232 381.094C273.957 390.975 250.152 403.087 225.914 415.717C227.861 412.092 227.789 405.607 225.627 396.888C222.481 385.306 217.929 374.152 212.073 363.673L298.158 311.483C298.28 311.407 298.368 311.286 298.401 311.145C298.434 311.005 298.41 310.857 298.334 310.734C298.258 310.612 298.136 310.524 297.995 310.491C297.855 310.458 297.707 310.482 297.584 310.558L211.568 362.705C209.925 359.707 208.305 356.921 206.633 354.19L296.454 299.663C296.577 299.587 296.665 299.466 296.698 299.325C296.731 299.185 296.707 299.037 296.631 298.915C296.555 298.792 296.433 298.705 296.292 298.672C296.152 298.638 296.004 298.663 295.881 298.739L206.069 353.271C199.964 343.096 192.647 333.697 184.276 325.282C177.518 318.793 171.734 315.472 167.571 315.615C190.797 298.504 209.535 285.161 227.276 270.947C227.38 270.855 227.445 270.726 227.457 270.587C227.469 270.448 227.427 270.31 227.339 270.202C227.252 270.093 227.125 270.022 226.987 270.005C226.849 269.987 226.709 270.023 226.596 270.105C202.444 289.47 165.902 315.105 164.603 316.491C156.371 321.594 162.682 347.63 179.075 376.003C193.796 401.486 210.952 418.998 220.483 418.998C221.759 419.028 223.011 418.647 224.053 417.91C295.694 380.521 299.651 383.124 298.935 381.38Z" fill="#6DAC7F"/>
<path d="M542.837 373.474C542.825 373.37 542.782 373.272 542.715 373.192C542.648 373.112 542.559 373.054 542.459 373.023C542.359 372.993 542.253 372.992 542.153 373.021C542.052 373.05 541.963 373.108 541.895 373.187C534.904 381.185 521.769 377.151 517.692 390.782C511.901 394.011 506.302 397.573 500.923 401.451C500.807 401.485 500.705 401.559 500.637 401.66C499.946 402.173 499.245 402.704 498.525 403.26C482.682 415.5 462.316 434.505 465.292 438.366C465.505 438.593 465.767 438.767 466.059 438.875C466.35 438.983 466.662 439.022 466.971 438.988C473.331 438.988 493.535 425.971 507.653 415.07C513.664 410.366 519.314 405.217 524.556 399.668C537.225 398.931 544.172 386.098 542.837 373.474ZM506.983 414.204C487.089 429.577 467.908 439.969 466.146 437.71C464.384 435.451 479.296 419.487 499.19 404.117C499.8 403.644 500.405 403.185 500.998 402.744L508.77 412.811C508.192 413.261 507.599 413.728 506.983 414.204ZM509.61 412.117L501.875 402.085C507.061 398.371 512.45 394.947 518.016 391.831L523.611 399.083C519.191 403.686 514.516 408.038 509.61 412.117Z" fill="#6DAC7F"/>
<path d="M528.88 162.235L535.624 147.034H523.525C523.437 147.028 523.352 147 523.276 146.954C523.2 146.909 523.136 146.846 523.088 146.77C523.041 146.695 523.012 146.61 523.003 146.521C522.994 146.432 523.006 146.343 523.038 146.259L530.128 130.319C530.186 130.188 530.293 130.086 530.425 130.035C530.557 129.984 530.705 129.989 530.834 130.047C530.963 130.105 531.064 130.213 531.115 130.347C531.165 130.48 531.161 130.628 531.103 130.759L524.362 145.959H536.461C536.551 145.962 536.64 145.988 536.718 146.034C536.796 146.08 536.862 146.144 536.909 146.222C537.141 146.585 537.507 145.511 529.87 162.675C529.812 162.807 529.704 162.911 529.57 162.963C529.437 163.015 529.288 163.012 529.156 162.954C529.025 162.895 528.922 162.787 528.87 162.652C528.819 162.517 528.822 162.367 528.88 162.235Z" fill="#6DAC7F"/>
<path d="M277.477 524.018L263.527 524.427L263.117 510.489C263.104 510.353 263.04 510.226 262.937 510.135C262.834 510.045 262.7 509.996 262.563 510C262.425 510.004 262.295 510.06 262.197 510.157C262.1 510.254 262.042 510.384 262.037 510.521L262.447 524.459L248.494 524.868C248.358 524.88 248.231 524.943 248.139 525.045C248.048 525.146 247.998 525.279 248 525.416C248.002 525.553 248.056 525.683 248.151 525.782C248.246 525.881 248.375 525.94 248.512 525.947L262.479 525.538L262.888 539.476C262.892 539.616 262.95 539.75 263.051 539.847C263.152 539.945 263.286 540 263.427 540C263.572 539.998 263.711 539.938 263.812 539.834C263.914 539.73 263.97 539.59 263.968 539.445L263.559 525.506L277.511 525.097C277.648 525.084 277.775 525.019 277.865 524.916C277.956 524.813 278.004 524.679 278 524.542C277.995 524.404 277.939 524.274 277.842 524.177C277.745 524.079 277.614 524.023 277.477 524.018Z" fill="#6DAC7F"/>
<path d="M304.51 17.8577H295.426C293.327 17.8671 291.308 17.0257 289.811 15.5168C288.313 14.0078 287.458 11.9535 287.431 9.8012V0.559707C287.431 -0.0501963 286.36 -0.311584 286.363 0.559707V9.80991C286.384 11.9705 285.569 14.0516 284.097 15.5975C282.624 17.1435 280.614 18.0283 278.506 18.0581H269.497C269.362 18.0682 269.235 18.1303 269.143 18.2318C269.051 18.3334 269 18.4669 269 18.6056C269 18.7443 269.051 18.8778 269.143 18.9794C269.235 19.0809 269.362 19.143 269.497 19.1531H278.563C280.662 19.1475 282.678 19.9907 284.174 21.4996C285.669 23.0086 286.524 25.0614 286.553 27.2125V36.454C286.553 36.5988 286.609 36.7377 286.709 36.8401C286.809 36.9425 286.944 37 287.085 37C287.227 37 287.362 36.9425 287.462 36.8401C287.562 36.7377 287.618 36.5988 287.618 36.454V27.2038C287.597 25.042 288.412 22.9597 289.886 21.4131C291.36 19.8665 293.371 18.9818 295.48 18.9527H304.496C304.631 18.9446 304.758 18.8843 304.852 18.784C304.945 18.6837 304.998 18.5507 305 18.412C305.002 18.2732 304.952 18.1389 304.861 18.036C304.77 17.9332 304.645 17.8695 304.51 17.8577ZM287.046 24.0729C286.583 22.7987 285.853 21.6441 284.907 20.6906C283.961 19.7372 282.823 19.0081 281.572 18.5548C282.815 18.0801 283.941 17.3316 284.871 16.3621C285.802 15.3926 286.513 14.2257 286.955 12.9437C287.418 14.2179 288.148 15.3725 289.094 16.326C290.04 17.2794 291.178 18.0085 292.429 18.4618C291.186 18.9365 290.059 19.685 289.129 20.6545C288.199 21.624 287.488 22.7909 287.046 24.0729Z" fill="#6DAC7F"/>
<path d="M74.2555 505.049L91.1715 496.056C91.3014 495.996 91.4514 495.984 91.591 496.021C91.7305 496.059 91.8491 496.144 91.9223 496.259C91.9956 496.373 92.0181 496.509 91.9852 496.639C91.9524 496.768 91.8666 496.881 91.7455 496.955C77.9951 504.255 75.4003 505.686 74.7902 505.959C74.6597 506.009 74.5132 506.014 74.3795 505.971C74.2458 505.928 74.1344 505.841 74.0674 505.727C74.0004 505.613 73.9826 505.48 74.0174 505.355C74.0522 505.229 74.1371 505.12 74.2555 505.049Z" fill="#6DAC7F"/>
<path d="M12.5263 405.998C12.4103 405.998 12.2973 405.961 12.2052 405.891C12.1131 405.822 12.047 405.723 12.0174 405.613C11.9877 405.502 11.9962 405.384 12.0415 405.278C12.0867 405.173 12.1662 405.085 12.2674 405.029L28.2177 396.068C28.3383 396 28.4814 395.982 28.6152 396.019C28.7491 396.055 28.8629 396.142 28.9315 396.262C29.0002 396.381 29.0181 396.522 28.9813 396.655C28.9445 396.787 28.856 396.9 28.7353 396.968C11.9502 406.383 12.8046 405.998 12.5263 405.998Z" fill="#6DAC7F"/>
<path d="M181.967 416.307C174.345 393.47 162.28 372.38 146.471 354.262C137.393 344.316 130.42 337.537 123.43 340.849C119.195 343.181 118.145 346.482 118.857 351.352C117.649 349.83 115.965 348.76 114.077 348.316C112.19 347.873 110.208 348.081 108.452 348.906C106.697 349.732 105.269 351.128 104.401 352.868C103.533 354.609 103.275 356.592 103.668 358.497C102.285 357.363 100.584 356.689 98.8019 356.568C97.0197 356.446 95.244 356.884 93.7207 357.821C92.1974 358.758 91.0019 360.146 90.2997 361.795C89.5974 363.444 89.4233 365.271 89.8013 367.023C88.4957 365.955 86.9035 365.3 85.2265 365.141C83.5496 364.982 81.8635 365.327 80.3819 366.131C53.1319 381.296 73.9012 369.992 40.2899 389.15C40.1664 389.221 40.0761 389.338 40.0387 389.476C40.0013 389.613 40.02 389.76 40.0906 389.884C40.1612 390.008 40.278 390.099 40.4152 390.137C40.5524 390.174 40.6989 390.155 40.8224 390.084L62.5341 377.703C58.2288 386.24 64.8434 409.539 79.26 434.753L27.2628 465.557C27.1405 465.63 27.052 465.748 27.0167 465.886C26.9815 466.025 27.0024 466.171 27.0749 466.294C27.1474 466.417 27.2655 466.506 27.4033 466.541C27.5411 466.577 27.6872 466.556 27.8096 466.483L79.7868 435.696C94.3088 460.79 111.132 478.224 120.639 478.704L101.299 490.01C101.185 490.087 101.104 490.204 101.073 490.338C101.042 490.472 101.063 490.613 101.133 490.732C101.202 490.851 101.313 490.939 101.445 490.978C101.576 491.017 101.718 491.004 101.84 490.942L140.597 468.332C141.864 467.324 142.825 465.981 143.372 464.454C143.92 462.927 144.031 461.276 143.695 459.689C145.081 460.801 146.775 461.456 148.546 461.566C150.316 461.675 152.078 461.233 153.589 460.3C155.1 459.367 156.287 457.988 156.989 456.353C157.69 454.717 157.871 452.904 157.508 451.161C158.595 452.03 159.872 452.628 161.234 452.907C162.596 453.185 164.004 453.137 165.344 452.764C166.451 452.435 167.481 451.887 168.374 451.153C169.267 450.419 170.005 449.513 170.544 448.488C171.083 447.464 171.413 446.341 171.514 445.187C171.616 444.033 171.486 442.87 171.133 441.766C172.642 442.888 174.439 443.552 176.313 443.68C178.186 443.807 180.057 443.393 181.703 442.487C188.653 438.077 185.997 429.417 181.967 416.307ZM181.139 441.575C179.265 442.535 177.117 442.81 175.063 442.354C173.009 441.897 171.177 440.736 169.883 439.071C169.801 438.962 169.68 438.889 169.546 438.866C169.412 438.843 169.274 438.872 169.16 438.947C169.047 439.022 168.966 439.138 168.935 439.271C168.903 439.404 168.924 439.544 168.992 439.663C169.724 440.707 170.202 441.909 170.387 443.172C170.573 444.436 170.46 445.725 170.059 446.937C169.669 448.079 169.011 449.11 168.141 449.943C167.271 450.777 166.214 451.388 165.059 451.727C163.506 452.165 161.854 452.096 160.342 451.531C158.829 450.966 157.535 449.934 156.645 448.583C156.127 447.743 155.196 448.48 155.549 449.066C156.601 450.771 156.935 452.826 156.477 454.779C156.019 456.732 154.808 458.422 153.109 459.478C151.409 460.534 149.362 460.869 147.417 460.409C145.471 459.95 143.787 458.734 142.735 457.028C142.209 456.494 141.406 457.083 141.747 457.654C142.684 459.229 143.019 461.092 142.69 462.897C142.36 464.701 141.389 466.324 139.956 467.463L126.437 475.32C134.236 459.832 106.334 402.768 80.7208 380.79C77.4548 378.049 72.5999 374.545 68.3686 374.317L80.8973 367.089C82.5964 366.184 84.5761 365.967 86.4296 366.482C88.2831 366.997 89.8697 368.205 90.8634 369.858C90.9506 369.98 91.0807 370.063 91.2271 370.092C91.3735 370.12 91.5253 370.092 91.6515 370.012C91.7777 369.932 91.869 369.807 91.9066 369.662C91.9443 369.517 91.9256 369.364 91.8543 369.232C90.8041 367.545 90.4591 365.51 90.8938 363.569C91.3286 361.628 92.5083 359.937 94.1769 358.863C95.8455 357.789 97.8687 357.419 99.8075 357.833C101.746 358.246 103.445 359.41 104.534 361.073C104.91 361.644 106.083 361.324 105.673 360.632C105.062 359.638 104.692 358.513 104.593 357.349C104.494 356.185 104.669 355.014 105.103 353.93C105.637 352.564 106.556 351.383 107.749 350.534C108.941 349.684 110.354 349.202 111.815 349.146C113.276 349.091 114.722 349.464 115.975 350.221C117.227 350.978 118.233 352.085 118.868 353.407C118.931 353.516 119.247 354.07 119.437 354.385C119.907 355.162 120.559 354.642 120.488 354.119C119.207 348.471 119.013 344.51 123.905 341.815C130.215 338.84 137.2 345.705 145.677 354.991C161.382 372.989 173.368 393.94 180.939 416.627C184.963 429.708 187.383 437.608 181.139 441.575Z" fill="#6DAC7F"/>
<path d="M0.536516 481.998C0.418486 481.997 0.303861 481.956 0.210281 481.879C0.116702 481.803 0.0493531 481.696 0.0185984 481.575C-0.0121563 481.454 -0.00461231 481.326 0.0400689 481.21C0.0847501 481.094 0.164093 480.996 0.265888 480.933L16.2187 471.062C16.3412 470.996 16.4827 470.982 16.6143 471.023C16.7459 471.065 16.8577 471.158 16.9268 471.284C16.9959 471.41 17.0171 471.559 16.9861 471.701C16.9551 471.843 16.8742 471.967 16.76 472.048C-0.00189086 482.4 0.821388 481.998 0.536516 481.998Z" fill="#6DAC7F"/>
<path d="M114.716 212.532C115.172 203.643 112.622 194.86 107.478 187.607C102.335 180.353 94.8996 175.055 86.3779 172.57C77.8561 170.086 68.7475 170.56 60.5285 173.918C52.3095 177.275 45.462 183.318 41.0959 191.067C32.5863 190.026 18.5558 189.111 17.116 194.099C15.5214 199.625 30.7995 207.153 36.0309 209.633C35.8403 218.351 38.5316 226.888 43.6851 233.912C48.8386 240.935 56.1646 246.051 64.5207 248.461C72.8768 250.872 81.7932 250.441 89.8795 247.236C97.9658 244.031 104.767 238.232 109.224 230.744C138.475 234.285 141.24 225.256 114.716 212.532ZM76.155 172.102C82.797 172.247 89.2875 174.121 94.9904 177.539C100.693 180.957 105.413 185.802 108.687 191.6C111.961 197.398 113.676 203.95 113.666 210.613C113.656 217.277 111.919 223.823 108.627 229.611C83.9652 226.038 59.909 219.086 37.1322 208.951C37.5326 198.908 41.844 189.423 49.1402 182.533C56.4365 175.643 66.1358 171.898 76.155 172.102ZM18.1572 194.401C19.0176 191.424 27.5615 190.55 40.528 192.1C37.8698 197.162 36.3458 202.745 36.0624 208.459C31.8407 206.431 16.8551 198.918 18.1572 194.401ZM47.7842 237.113C40.8148 229.881 36.9769 220.179 37.1064 210.122C59.719 220.134 83.5837 227.018 108.045 230.583C104.982 235.584 100.818 239.814 95.8719 242.951C90.9259 246.087 85.3295 248.045 79.5118 248.676C73.6941 249.306 67.8097 248.592 62.31 246.587C56.8103 244.583 51.8413 241.342 47.7842 237.113ZM131.818 227.387C130.958 230.315 122.833 231.256 109.8 229.752C112.553 224.814 114.206 219.337 114.647 213.697C126.263 219.327 132.67 224.416 131.813 227.381L131.818 227.387Z" fill="#6DAC7F"/>
<path d="M404.38 98.2554C396.483 102.223 388.39 105.789 380.131 108.938C381.123 107.289 382.344 104.697 381.118 103.458C379.193 101.512 359.076 119.016 356.314 121.439C355.538 120.912 354.729 120.436 353.892 120.012C352.279 119.849 315.332 150.202 265.553 158.082C264.945 158.173 264.333 158.23 263.72 158.254C260.574 157.492 261.252 156.184 260.288 153.544C264.089 152.925 269.917 151.578 271.132 149.018C274.324 142.299 265.739 124.393 262.307 116.282C257.906 105.879 233.239 110.733 213.117 120.469C196.267 128.623 182.608 140.199 186.703 149.104C188.805 153.67 195.569 155.454 205.33 154.164C195.891 157.898 187.412 163.699 180.52 171.14C152.874 202.82 207.975 207.033 240.363 168.554C235.775 176.396 231.933 184.65 228.889 193.208C224.465 204.535 223.567 205.84 223.484 206.202C222.987 208.437 226.916 210.64 228.958 211.682C227.554 214.725 225.451 217.395 222.821 219.476C201.686 236.238 200.634 259.97 216.28 278.17L217.138 277.514C201.889 259.819 202.787 236.744 223.496 220.321C225.059 219.084 226.45 217.645 227.631 216.04C242.807 215.833 257.753 219.75 270.869 227.371C269.874 228.969 268.75 230.73 267.475 232.699C263.602 230.833 259.634 229.008 255.569 227.225C255.44 227.179 255.299 227.184 255.174 227.238C255.048 227.292 254.948 227.391 254.893 227.516C254.838 227.641 254.832 227.781 254.877 227.91C254.922 228.039 255.014 228.146 255.134 228.21C280.31 238.893 303.808 253.148 324.901 270.533C329.954 274.796 334.038 280.084 336.882 286.046C339.727 292.008 341.266 298.506 341.397 305.107C341.791 323.75 341.242 344.465 339.624 370.534C326.377 373.552 312.554 372.87 299.671 368.562C300.037 351.723 299.385 335.349 298.759 318.356C304.693 301.431 304.479 302.173 304.479 301.885C304.474 301.797 304.448 301.712 304.401 301.638C304.355 301.563 304.29 301.502 304.213 301.46C304.087 301.394 297.99 299.134 297.858 299.082C296.877 298.657 256.87 281.27 233.931 274.061C227.068 271.906 221.348 263.54 219.701 253.246C219.673 253.11 219.593 252.989 219.479 252.91C219.365 252.831 219.224 252.799 219.086 252.821C218.949 252.842 218.825 252.916 218.741 253.027C218.656 253.137 218.618 253.276 218.634 253.414C220.35 264.103 226.355 272.822 233.608 275.088C255.575 281.992 293.279 298.269 297.126 299.938C297.529 321.744 299.128 344.602 298.576 368.881C298.572 368.918 298.572 368.956 298.576 368.993C298.095 389.999 296.894 390.561 297.815 390.918C299.474 391.554 301.093 392.114 302.645 392.582C302.806 401.267 300.052 405.896 302.417 411.544C303.826 414.756 305.855 417.66 308.388 420.089C318.792 430.555 327.263 461.305 334.699 456.493C335.997 455.637 337.013 451.995 334.699 431.314C333.727 418.585 333.87 405.796 335.125 393.092C336.375 392.727 337.645 392.308 338.909 391.837C339.006 391.801 339.09 391.738 339.152 391.656C339.214 391.573 339.251 391.474 339.258 391.371C341.969 355.071 342.955 328.456 342.461 305.081C342.326 298.328 340.751 291.681 337.842 285.582C334.933 279.483 330.755 274.073 325.587 269.711C308.13 255.226 288.941 242.957 268.459 233.185C270.847 229.491 273.649 225.076 275.797 221.217C278.337 220.838 279.772 220.061 280.07 218.911C283.787 210.92 282.772 202.871 280.052 193.316C312.4 186.914 354.835 164.49 374.38 147.431C374.448 147.371 374.5 147.294 374.531 147.208C374.562 147.122 374.571 147.03 374.557 146.94C374.359 145.698 374.072 144.471 373.699 143.27C376.742 140.046 380.182 137.218 383.935 134.853C385.321 135.607 386.877 136 388.456 135.995C393.69 135.995 398.64 131.756 398.972 128.474C399.039 127.7 398.844 126.925 398.42 126.274C399.033 125.915 399.56 125.428 399.966 124.846C400.373 124.264 400.648 123.601 400.773 122.903C400.829 122.282 400.725 121.657 400.472 121.087C400.218 120.517 399.824 120.02 399.326 119.644C399.751 119.074 399.991 118.387 400.014 117.677C400.036 116.967 399.84 116.267 399.452 115.671C398.442 114.494 397.188 113.55 395.777 112.904C394.366 112.258 392.831 111.926 391.279 111.929C401.528 106.581 405.91 100.633 405.998 98.9318C406.036 98.1926 405.406 97.6618 404.38 98.2554ZM338.217 390.932C325.347 395.515 311.235 395.199 298.584 390.044C299.156 383.166 299.477 376.379 299.64 369.672C312.518 373.922 326.311 374.602 339.546 371.638C339.163 377.763 338.72 384.179 338.217 390.932ZM380.423 104.303C381.129 105.328 379.141 108.661 378.421 109.592C373.287 111.266 368.376 113.557 363.795 116.413C370.593 110.773 378.85 104.463 380.423 104.303ZM242.637 167.078C248.808 158 251.886 145.573 253.378 134.748C253.392 134.657 253.381 134.564 253.347 134.478C253.314 134.393 253.258 134.317 253.187 134.26C245.983 128.357 249.849 123.243 253.727 127.184C256.281 129.781 259.81 128.76 256.839 120.454C258.562 119.703 260.22 118.811 261.795 117.786C269.165 134.99 271.727 143.387 270.546 147.502C269.374 151.569 259.253 146.609 255.466 144.648C255.369 144.599 255.259 144.579 255.151 144.593C255.042 144.607 254.941 144.654 254.859 144.726C254.778 144.799 254.721 144.894 254.695 145C254.669 145.106 254.675 145.217 254.714 145.319C255.724 148.233 257.199 150.965 259.081 153.41C259.99 155.508 259.676 157.209 261.274 158.385C259.563 158.377 257.899 158.944 256.55 159.995C249.463 166.311 248.171 187.194 231.981 188.336C234.762 180.89 238.334 173.764 242.637 167.078ZM271.441 226.469C258.377 218.856 243.5 214.89 228.372 214.987C230.332 211.808 231.703 208.302 232.418 204.638C244.862 204.638 269.162 210.224 277.207 216.18C275.465 219.707 273.541 223.141 271.441 226.469ZM270.277 193.676C270.14 193.69 270.013 193.756 269.923 193.86C269.833 193.964 269.786 194.099 269.793 194.237C269.799 194.374 269.858 194.504 269.957 194.6C270.056 194.696 270.188 194.75 270.326 194.752H270.375C273.003 194.512 275.9 194.098 278.991 193.521C281.508 202.341 282.546 209.815 279.672 217.105C276.469 212.184 258.981 207.586 253.195 206.293C246.006 204.551 238.639 203.64 231.24 203.579C229.297 203.548 227.362 203.824 225.506 204.398C227.508 199.92 229.381 194.9 231.543 189.443C248.831 188.67 250.513 166.822 257.282 160.8C259.318 158.976 262.833 159.629 265.736 159.158C294.257 154.643 323.903 141.868 353.852 121.199C362.823 126.357 371.683 136.457 373.456 146.829C350.783 166.479 301.527 190.839 270.277 193.676ZM389.011 111.864C387.636 111.9 386.269 112.076 384.93 112.389C384.799 112.429 384.688 112.518 384.62 112.636C384.552 112.755 384.531 112.895 384.563 113.029C384.595 113.162 384.676 113.278 384.79 113.354C384.904 113.429 385.043 113.459 385.179 113.436C392.523 111.707 401.039 114.966 398.474 118.982C396.555 117.892 394.439 117.192 392.248 116.92C390.056 116.648 387.833 116.81 385.705 117.398C385.636 117.414 385.571 117.443 385.513 117.484C385.456 117.526 385.407 117.578 385.37 117.638C385.332 117.698 385.307 117.765 385.296 117.834C385.284 117.904 385.287 117.975 385.303 118.044C385.319 118.113 385.349 118.178 385.39 118.235C385.431 118.293 385.483 118.341 385.544 118.378C385.604 118.416 385.671 118.441 385.741 118.452C385.81 118.464 385.882 118.461 385.951 118.445C390.075 117.475 395.757 117.766 398.706 120.529C399.04 120.783 399.307 121.115 399.483 121.496C399.659 121.877 399.739 122.296 399.715 122.715C399.598 123.28 399.363 123.814 399.024 124.282C398.686 124.75 398.253 125.142 397.753 125.432C394.934 122.564 389.38 122.458 385.387 123.263C385.253 123.297 385.137 123.382 385.063 123.499C384.99 123.616 384.964 123.757 384.991 123.893C385.019 124.028 385.098 124.148 385.211 124.227C385.325 124.307 385.465 124.339 385.602 124.319C391.227 123.177 395.071 124.442 396.793 126C397.152 126.277 397.441 126.636 397.634 127.047C397.827 127.458 397.919 127.909 397.902 128.363C397.545 129.556 396.93 130.655 396.1 131.584C395.271 132.514 394.247 133.249 393.1 133.74C391.876 134.419 390.514 134.813 389.116 134.892C387.718 134.97 386.32 134.732 385.027 134.194C387.249 132.838 389.626 131.755 392.108 130.969C392.244 130.956 392.371 130.893 392.462 130.791C392.553 130.689 392.602 130.557 392.599 130.42C392.596 130.284 392.542 130.153 392.446 130.055C392.351 129.957 392.222 129.899 392.085 129.893C384.863 132.263 378.39 136.481 373.31 142.125C370.074 134.014 364.491 127.048 357.272 122.115C363.277 117.548 369.927 113.893 377.005 111.27C386.492 107.769 395.781 103.756 404.832 99.2486C404.188 100.901 399.855 106.632 389.008 111.864H389.011Z" fill="#000001"/>
</svg>
